<svg width="20" height="20" viewBox="0 0 24 24" fill="none" xmlns="http://www.w3.org/2000/svg">
  <path fill-rule="evenodd" clip-rule="evenodd" d="M6.62 10.79C8.06 14.02 9.98 15.94 13.21 17.38L15.5 15.1C15.78 14.82 16.18 14.75 16.54 14.86C17.66 15.21 18.89 15.39 20.16 15.39C20.7 15.39 21.13 15.82 21.13 16.36V20.16C21.13 20.7 20.7 21.13 20.16 21.13C9.53 21.13 2.87 14.47 2.87 3.84C2.87 3.3 3.3 2.87 3.84 2.87H7.64C8.18 2.87 8.61 3.3 8.61 3.84C8.61 5.11 8.79 6.34 9.14 7.46C9.25 7.82 9.18 8.22 8.9 8.5L6.62 10.79Z" fill="white"/>
</svg>
